<mxfile host="Electron" modified="2023-06-15T21:52:22.676Z" agent="Mozilla/5.0 (X11; Linux x86_64) AppleWebKit/537.36 (KHTML, like Gecko) draw.io/21.4.0 Chrome/112.0.5615.204 Electron/24.5.1 Safari/537.36" etag="y1Asf_giwXAqTMzeBlrl" version="21.4.0" type="device">
  <diagram id="R2lEEEUBdFMjLlhIrx00" name="Page-1">
    <mxGraphModel dx="1311" dy="859" grid="1" gridSize="10" guides="1" tooltips="1" connect="1" arrows="1" fold="1" page="1" pageScale="1" pageWidth="850" pageHeight="1100" math="0" shadow="0" extFonts="Permanent Marker^https://fonts.googleapis.com/css?family=Permanent+Marker">
      <root>
        <mxCell id="0" />
        <mxCell id="1" parent="0" />
        <mxCell id="CDuvJxrMlOXdgp_OsfBR-3" style="edgeStyle=orthogonalEdgeStyle;rounded=0;orthogonalLoop=1;jettySize=auto;html=1;endArrow=none;endFill=0;" edge="1" parent="1">
          <mxGeometry relative="1" as="geometry">
            <mxPoint x="160" y="480" as="targetPoint" />
            <mxPoint x="160.05882352941194" y="330" as="sourcePoint" />
          </mxGeometry>
        </mxCell>
        <mxCell id="CDuvJxrMlOXdgp_OsfBR-4" style="edgeStyle=orthogonalEdgeStyle;rounded=0;orthogonalLoop=1;jettySize=auto;html=1;endArrow=none;endFill=0;" edge="1" parent="1" source="CDuvJxrMlOXdgp_OsfBR-2">
          <mxGeometry relative="1" as="geometry">
            <mxPoint x="440" y="480" as="targetPoint" />
          </mxGeometry>
        </mxCell>
        <mxCell id="CDuvJxrMlOXdgp_OsfBR-2" value="&lt;b&gt;Приложение&lt;/b&gt;" style="rounded=0;whiteSpace=wrap;html=1;" vertex="1" parent="1">
          <mxGeometry x="380" y="270" width="120" height="60" as="geometry" />
        </mxCell>
        <mxCell id="CDuvJxrMlOXdgp_OsfBR-5" value="" style="endArrow=classic;html=1;rounded=0;" edge="1" parent="1">
          <mxGeometry width="50" height="50" relative="1" as="geometry">
            <mxPoint x="160" y="370" as="sourcePoint" />
            <mxPoint x="440" y="370" as="targetPoint" />
          </mxGeometry>
        </mxCell>
        <mxCell id="CDuvJxrMlOXdgp_OsfBR-6" value="GET /api/v1/devices/experiments&lt;br&gt;Headers: &quot;Device-Token=1234...&quot;" style="edgeLabel;html=1;align=center;verticalAlign=middle;resizable=0;points=[];" vertex="1" connectable="0" parent="CDuvJxrMlOXdgp_OsfBR-5">
          <mxGeometry x="0.0813" y="-2" relative="1" as="geometry">
            <mxPoint x="-12" y="-2" as="offset" />
          </mxGeometry>
        </mxCell>
        <mxCell id="CDuvJxrMlOXdgp_OsfBR-7" value="" style="endArrow=classic;html=1;rounded=0;entryX=0;entryY=0.25;entryDx=0;entryDy=0;" edge="1" parent="1" target="CDuvJxrMlOXdgp_OsfBR-9">
          <mxGeometry width="50" height="50" relative="1" as="geometry">
            <mxPoint x="440" y="383" as="sourcePoint" />
            <mxPoint x="570" y="400" as="targetPoint" />
          </mxGeometry>
        </mxCell>
        <mxCell id="CDuvJxrMlOXdgp_OsfBR-12" style="edgeStyle=orthogonalEdgeStyle;rounded=0;orthogonalLoop=1;jettySize=auto;html=1;entryX=-0.006;entryY=0.321;entryDx=0;entryDy=0;exitX=1;exitY=0.25;exitDx=0;exitDy=0;entryPerimeter=0;" edge="1" parent="1" source="CDuvJxrMlOXdgp_OsfBR-9" target="CDuvJxrMlOXdgp_OsfBR-10">
          <mxGeometry relative="1" as="geometry" />
        </mxCell>
        <mxCell id="CDuvJxrMlOXdgp_OsfBR-9" value="&lt;b&gt;Api::V1::Devices::ExperimentsController&lt;/b&gt;&lt;br&gt;(принимает запрос, передаёт токен в обработку, возвращает список значений)" style="rounded=1;whiteSpace=wrap;html=1;dashed=1;" vertex="1" parent="1">
          <mxGeometry x="520" y="360" width="240" height="90" as="geometry" />
        </mxCell>
        <mxCell id="CDuvJxrMlOXdgp_OsfBR-16" style="edgeStyle=orthogonalEdgeStyle;rounded=0;orthogonalLoop=1;jettySize=auto;html=1;entryX=0.5;entryY=0;entryDx=0;entryDy=0;" edge="1" parent="1" source="CDuvJxrMlOXdgp_OsfBR-10" target="CDuvJxrMlOXdgp_OsfBR-13">
          <mxGeometry relative="1" as="geometry" />
        </mxCell>
        <mxCell id="CDuvJxrMlOXdgp_OsfBR-10" value="&lt;b&gt;AddDeviceToExperiments&lt;/b&gt;&lt;br&gt;(запускает последовательность из интеракторов)" style="rounded=1;whiteSpace=wrap;html=1;dashed=1;" vertex="1" parent="1">
          <mxGeometry x="840" y="360" width="155" height="70" as="geometry" />
        </mxCell>
        <mxCell id="CDuvJxrMlOXdgp_OsfBR-17" style="edgeStyle=orthogonalEdgeStyle;rounded=0;orthogonalLoop=1;jettySize=auto;html=1;entryX=0.5;entryY=0;entryDx=0;entryDy=0;" edge="1" parent="1" source="CDuvJxrMlOXdgp_OsfBR-13" target="CDuvJxrMlOXdgp_OsfBR-14">
          <mxGeometry relative="1" as="geometry" />
        </mxCell>
        <mxCell id="CDuvJxrMlOXdgp_OsfBR-13" value="&lt;b&gt;RegisterDeviceToken&lt;/b&gt;&lt;br&gt;(создаёт или находит токен)" style="rounded=1;whiteSpace=wrap;html=1;dashed=1;" vertex="1" parent="1">
          <mxGeometry x="851.25" y="460" width="132.5" height="60" as="geometry" />
        </mxCell>
        <mxCell id="CDuvJxrMlOXdgp_OsfBR-18" style="edgeStyle=orthogonalEdgeStyle;rounded=0;orthogonalLoop=1;jettySize=auto;html=1;entryX=0.5;entryY=0;entryDx=0;entryDy=0;" edge="1" parent="1" source="CDuvJxrMlOXdgp_OsfBR-14" target="CDuvJxrMlOXdgp_OsfBR-15">
          <mxGeometry relative="1" as="geometry" />
        </mxCell>
        <mxCell id="CDuvJxrMlOXdgp_OsfBR-26" style="edgeStyle=orthogonalEdgeStyle;rounded=0;orthogonalLoop=1;jettySize=auto;html=1;exitX=1;exitY=0.25;exitDx=0;exitDy=0;entryX=-0.005;entryY=0.349;entryDx=0;entryDy=0;entryPerimeter=0;" edge="1" parent="1" source="CDuvJxrMlOXdgp_OsfBR-14" target="CDuvJxrMlOXdgp_OsfBR-24">
          <mxGeometry relative="1" as="geometry" />
        </mxCell>
        <mxCell id="CDuvJxrMlOXdgp_OsfBR-28" value="#next_value" style="edgeLabel;html=1;align=center;verticalAlign=middle;resizable=0;points=[];" vertex="1" connectable="0" parent="CDuvJxrMlOXdgp_OsfBR-26">
          <mxGeometry x="-0.1797" y="2" relative="1" as="geometry">
            <mxPoint x="9" as="offset" />
          </mxGeometry>
        </mxCell>
        <mxCell id="CDuvJxrMlOXdgp_OsfBR-14" value="&lt;b&gt;ChooseOptionsForDistribution&lt;/b&gt;&lt;br&gt;(находит доступные эксперименты и подготавливает список значений)" style="rounded=1;whiteSpace=wrap;html=1;dashed=1;" vertex="1" parent="1">
          <mxGeometry x="817.5" y="550" width="200" height="60" as="geometry" />
        </mxCell>
        <mxCell id="CDuvJxrMlOXdgp_OsfBR-19" style="edgeStyle=orthogonalEdgeStyle;rounded=0;orthogonalLoop=1;jettySize=auto;html=1;" edge="1" parent="1" source="CDuvJxrMlOXdgp_OsfBR-15" target="CDuvJxrMlOXdgp_OsfBR-9">
          <mxGeometry relative="1" as="geometry">
            <mxPoint x="610" y="480" as="targetPoint" />
          </mxGeometry>
        </mxCell>
        <mxCell id="CDuvJxrMlOXdgp_OsfBR-30" value="передача&lt;br&gt;управления" style="edgeLabel;html=1;align=center;verticalAlign=middle;resizable=0;points=[];" vertex="1" connectable="0" parent="CDuvJxrMlOXdgp_OsfBR-19">
          <mxGeometry x="0.1771" y="-2" relative="1" as="geometry">
            <mxPoint as="offset" />
          </mxGeometry>
        </mxCell>
        <mxCell id="CDuvJxrMlOXdgp_OsfBR-15" value="&lt;b&gt;DistributeOptionsForDeviceToken&lt;/b&gt;&lt;br&gt;(сохраняет выбранные значения)" style="rounded=1;whiteSpace=wrap;html=1;dashed=1;" vertex="1" parent="1">
          <mxGeometry x="813.75" y="640" width="207.5" height="60" as="geometry" />
        </mxCell>
        <mxCell id="CDuvJxrMlOXdgp_OsfBR-20" value="" style="endArrow=classic;html=1;rounded=0;exitX=0;exitY=0.778;exitDx=0;exitDy=0;exitPerimeter=0;" edge="1" parent="1" source="CDuvJxrMlOXdgp_OsfBR-9">
          <mxGeometry width="50" height="50" relative="1" as="geometry">
            <mxPoint x="495" y="430" as="sourcePoint" />
            <mxPoint x="440" y="430" as="targetPoint" />
          </mxGeometry>
        </mxCell>
        <mxCell id="CDuvJxrMlOXdgp_OsfBR-21" value="" style="endArrow=classic;html=1;rounded=0;" edge="1" parent="1">
          <mxGeometry width="50" height="50" relative="1" as="geometry">
            <mxPoint x="440" y="440" as="sourcePoint" />
            <mxPoint x="160" y="440" as="targetPoint" />
          </mxGeometry>
        </mxCell>
        <mxCell id="CDuvJxrMlOXdgp_OsfBR-22" value="JSON список значений для Device-Token" style="edgeLabel;html=1;align=center;verticalAlign=middle;resizable=0;points=[];" vertex="1" connectable="0" parent="CDuvJxrMlOXdgp_OsfBR-21">
          <mxGeometry x="0.0813" y="-2" relative="1" as="geometry">
            <mxPoint x="12" y="2" as="offset" />
          </mxGeometry>
        </mxCell>
        <mxCell id="CDuvJxrMlOXdgp_OsfBR-23" value="&lt;h1&gt;Схема обработки запроса&lt;/h1&gt;&lt;p&gt;GET /api/v1/devices/experiments&lt;br&gt;&lt;/p&gt;" style="text;html=1;strokeColor=none;fillColor=none;spacing=5;spacingTop=-20;whiteSpace=wrap;overflow=hidden;rounded=0;" vertex="1" parent="1">
          <mxGeometry x="557.5" y="190" width="222.5" height="120" as="geometry" />
        </mxCell>
        <mxCell id="CDuvJxrMlOXdgp_OsfBR-27" style="edgeStyle=orthogonalEdgeStyle;rounded=0;orthogonalLoop=1;jettySize=auto;html=1;exitX=-0.008;exitY=0.579;exitDx=0;exitDy=0;entryX=1;entryY=0.75;entryDx=0;entryDy=0;exitPerimeter=0;" edge="1" parent="1" source="CDuvJxrMlOXdgp_OsfBR-24" target="CDuvJxrMlOXdgp_OsfBR-14">
          <mxGeometry relative="1" as="geometry" />
        </mxCell>
        <mxCell id="CDuvJxrMlOXdgp_OsfBR-29" value="значение" style="edgeLabel;html=1;align=center;verticalAlign=middle;resizable=0;points=[];" vertex="1" connectable="0" parent="CDuvJxrMlOXdgp_OsfBR-27">
          <mxGeometry x="-0.2716" relative="1" as="geometry">
            <mxPoint x="-20" as="offset" />
          </mxGeometry>
        </mxCell>
        <mxCell id="CDuvJxrMlOXdgp_OsfBR-24" value="&lt;b&gt;ValueDistributor&lt;/b&gt;&lt;br&gt;(распределяет значения согласно заданному процентами распределению:&lt;br&gt;&lt;div style=&quot;text-align: left;&quot;&gt;&lt;span style=&quot;background-color: initial;&quot;&gt;&amp;nbsp;- равномерное распределение (UniformStrategy)&lt;/span&gt;&lt;span style=&quot;background-color: initial;&quot;&gt;&amp;nbsp;если заданные проценты ~равны (разница между макс. и мин. процентом &amp;lt;= 1);&lt;/span&gt;&lt;/div&gt;&lt;div style=&quot;text-align: left;&quot;&gt;&lt;span style=&quot;background-color: initial;&quot;&gt;&amp;nbsp;- процентное распределение (PercentageStrategy) если заданные проценты не равны.&lt;/span&gt;&lt;/div&gt;" style="rounded=1;whiteSpace=wrap;html=1;glass=0;shadow=0;dashed=1;" vertex="1" parent="1">
          <mxGeometry x="1150" y="520" width="380" height="130" as="geometry" />
        </mxCell>
        <mxCell id="CDuvJxrMlOXdgp_OsfBR-31" value="&lt;b&gt;Клиент&lt;/b&gt;" style="shape=umlActor;verticalLabelPosition=bottom;verticalAlign=top;html=1;outlineConnect=0;" vertex="1" parent="1">
          <mxGeometry x="145" y="250" width="30" height="60" as="geometry" />
        </mxCell>
      </root>
    </mxGraphModel>
  </diagram>
</mxfile>
